<svg aria-hidden="true" style="width:0;height:0;position:absolute;overflow:hidden" xmlns="http://www.w3.org/2000/svg"><defs><symbol id="icon-search" viewBox="0 0 32 32"><path d="M12 2.667c-5.139 0-9.333 4.194-9.333 9.333S6.861 21.333 12 21.333c2.331 0 4.46-.869 6.099-2.292l.568.568v1.724l8 8 2.667-2.667-8-8H19.61l-.568-.568a9.28 9.28 0 0 0 2.292-6.099c0-5.139-4.194-9.333-9.333-9.333zm0 2.666c3.698 0 6.667 2.969 6.667 6.667S15.698 18.667 12 18.667 5.333 15.698 5.333 12 8.302 5.333 12 5.333z"/></symbol></defs></svg>